<svg xmlns="http://www.w3.org/2000/svg" viewBox="0 0 124.64 63.81"><title>fal-ft-car-fl</title><g id="Capa_2" data-name="Capa 2"><g id="iconos"><path d="M67.44,63.81c-4.81,0-8.57-6.12-8.57-13.92S62.63,36,67.44,36,76,42.08,76,49.89,72.24,63.81,67.44,63.81Zm0-24.84c-2.64,0-5.57,4.48-5.57,10.92s2.93,10.92,5.57,10.92S73,56.32,73,49.89,70.07,39,67.44,39Z"/><path d="M109,63.81c-4.81,0-8.58-6.12-8.58-13.92S104.2,36,109,36s8.57,6.11,8.57,13.92S113.81,63.81,109,63.81ZM109,39c-2.64,0-5.58,4.48-5.58,10.92s2.94,10.92,5.58,10.92,5.57-4.49,5.57-10.92S111.64,39,109,39Z"/><path d="M97.92,53.08H78.57a1.5,1.5,0,0,1,0-3H97.92a1.5,1.5,0,0,1,0,3Z"/><path d="M56.16,53.28H3.93a4,4,0,0,1-3.93-4V33.76a7,7,0,0,1,4.43-6.57l19-7.07a1.5,1.5,0,1,1,1.05,2.81L5.49,30A4,4,0,0,0,3,33.76V49.25a1,1,0,0,0,.93,1H56.16a1.5,1.5,0,0,1,0,3Z"/><path d="M8.75,39.76a4.62,4.62,0,0,1,0-9.23,4.62,4.62,0,0,1,0,9.23Zm0-7.23a2.62,2.62,0,0,0,0,5.23,2.62,2.62,0,0,0,0-5.23Z"/><path d="M44.46,39.76a4.62,4.62,0,1,1,4.48-4.61A4.55,4.55,0,0,1,44.46,39.76Zm0-7.23a2.62,2.62,0,1,0,2.48,2.62A2.55,2.55,0,0,0,44.46,32.53Z"/><path d="M33.15,38.49h-15a1,1,0,0,1,0-2h15a1,1,0,0,1,0,2Z"/><path d="M31.65,45.27H18.82a1,1,0,0,1,0-2H31.65a1,1,0,0,1,0,2Z"/><path d="M14.21,63.81c-4.35,0-7.92-5-8.49-11.91l-.13-1.62H22.83L22.7,51.9C22.13,58.8,18.56,63.81,14.21,63.81ZM8.92,53.28c.74,4.33,2.92,7.53,5.29,7.53s4.55-3.2,5.29-7.53Z"/><path d="M120.21,52.88H120a1.5,1.5,0,0,1,0-3h.21a1.23,1.23,0,0,0,1-.43,2.42,2.42,0,0,0,.4-1.92l-5.7-36.3A9.5,9.5,0,0,0,106.63,3h-62a5.08,5.08,0,0,0-4,1.94L29.35,20.21c-.05.07-.07.1-.06.16a.17.17,0,0,0,.05.1H65.76a2.47,2.47,0,0,0,2.07-1.15L76.61,5.39A1.5,1.5,0,0,1,79.15,7l-8.8,14a5.47,5.47,0,0,1-4.59,2.52H29.35a3,3,0,0,1-2.75-1.75A3.14,3.14,0,0,1,27,18.38L38.34,3.11A8.06,8.06,0,0,1,44.67,0h62a12.48,12.48,0,0,1,12.23,10.76l5.7,36.3a5.35,5.35,0,0,1-1.08,4.34A4.25,4.25,0,0,1,120.21,52.88Z"/><path d="M111.2,23.42h-33a1.5,1.5,0,0,1,0-3h33a1.5,1.5,0,0,1,0,3Z"/><path d="M95.87,22.75a1.5,1.5,0,0,1-1.5-1.5V5.77a1.5,1.5,0,1,1,3,0V21.25A1.5,1.5,0,0,1,95.87,22.75Z"/></g></g></svg>